<?xml version="1.0" encoding="UTF-8"?>
<svg width="345px" height="103px" viewBox="0 0 345 103" version="1.1" xmlns="http://www.w3.org/2000/svg" xmlns:xlink="http://www.w3.org/1999/xlink">
    <!-- Generator: Sketch 58 (84663) - https://sketch.com -->
    <title>📦 Modals and boxes / basic box</title>
    <desc>Created with Sketch.</desc>
    <g id="Page-1" stroke="none" stroke-width="1" fill="none" fill-rule="evenodd">
        <g id="iPhone-XS-Copy" transform="translate(-15.000000, -307.000000)">
            <g id="Group" transform="translate(15.000000, 307.000000)">
                <g id="📦-Modals-and-boxes-/-basic-box">
                    <rect id="modal-bg" fill="#FFFFFF" x="0" y="0" width="345" height="101.190476"></rect>
                    <g id="Bottom" transform="translate(0.000000, 100.000000)" fill="#1C1E20">
                        <path d="M318.703415,0.390960566 C310.008376,0.186764601 297.769648,-0.00996077874 289.670914,0.615078087 C289.400343,0.047313699 286.530455,0.346137061 285.505964,0.324970407 C280.795932,0.232833203 278.278048,0.432048778 274.4454,0.503019327 C261.561768,0.743323114 247.824394,0.250264566 234.330007,0.307539044 C227.371349,0.334931185 221.481838,0.261470442 215.652747,0.205441062 C211.707143,0.166843044 207.903391,0.39345076 203.901309,0.384735079 C198.262667,0.371039008 192.793461,0.0859117167 187.292732,0.128245026 C171.959515,0.246529274 155.73578,0.612587893 140.980481,0.546597734 C138.71872,0.535391858 136.479287,0.287617486 134.048091,0.263960637 C129.218535,0.221627327 124.796149,0.738342724 120.901769,0 C118.39702,0.541617344 114.79554,0.319990017 111.925651,0.319990017 C83.6588913,0.339911575 50.6558304,0.90892106 26.1573589,0.0933823007 C24.7099369,0.229097911 24.1425265,0.55282322 22.0370659,0.551578123 C19.3247915,0.395940955 16.6689953,0.225362619 13.7084788,0.124509734 C8.84083269,0.770715255 0.169435064,0.615078087 0,2.251136 C2.77400663,2.18888113 1.11511914,3.11398845 4.18727895,2.98823362 C7.51293463,2.9521258 7.26469256,2.16148899 10.3552407,2.07682237 C17.1352701,1.72321472 21.9924086,1.91495971 28.3324323,1.87885189 C32.0100926,1.86142053 35.8243517,1.63232262 38.6942402,1.70453826 C39.7358062,1.73068531 41.7453848,2.00336162 42.8591905,1.99215575 C45.3586861,1.9672538 47.2605619,1.66718534 49.758744,1.67714612 C52.6115576,1.6871069 55.2844286,1.94110676 58.0755101,1.95355773 C64.4523103,1.98344007 69.5681985,2.0133224 73.9800774,1.91371462 C75.6731146,1.8738715 77.2269261,1.60742067 78.8030662,1.60244028 C82.2745149,1.5912344 85.2678677,1.90375384 88.4923877,1.8751166 C92.669159,1.83776368 96.8997819,1.4542737 100.917626,1.39699922 C112.44315,1.23015617 123.86754,1.76056764 135.516529,1.75558725 C138.994544,1.75309706 142.384559,1.44431292 145.871769,1.43061685 C147.232504,1.42439136 148.673358,1.71574414 150.035406,1.71823433 C152.398303,1.72072453 154.531346,1.42812665 156.934959,1.40197961 C162.601183,1.33972474 168.623352,1.66469515 174.233097,1.65597947 C180.192221,1.64726378 186.197314,1.31482279 192.197155,1.3123326 C196.540734,1.30735221 201.228438,1.55388148 206.046173,1.57504814 C213.907171,1.60991086 222.135936,1.37832276 228.876562,1.81659702 C230.475031,1.62111674 235.93373,1.85270485 238.544869,1.49162662 C247.003487,2.08802824 256.355252,1.49536191 266.210068,1.57006775 C268.111944,1.58500892 269.760324,1.82282251 271.752828,1.85519504 C274.746181,1.90375384 278.645814,1.7319304 282.115949,1.67963632 C286.074688,1.61862655 289.885006,1.4542737 293.868701,1.5003423 C296.964503,1.53395993 299.940781,1.77550881 302.872401,1.77550881 C304.81368,1.77426371 306.908633,1.4517835 309.079766,1.46049918 C311.358602,1.47045996 313.841023,1.76554803 316.01347,1.74189118 C318.713923,1.71200885 321.100462,1.44680311 323.599957,1.42314626 C330.394435,1.3608914 343.526309,2.02701847 345,0.771960353 C337.57244,0.245284177 328.365154,0.615078087 318.703415,0.390960566" id="utilities-/-lines-/-horizontal" transform="translate(172.500000, 1.500000) scale(-1, 1) translate(-172.500000, -1.500000) "></path>
                    </g>
                    <g id="Right-" transform="translate(341.000000, 0.000000)" fill="#1C1E20">
                        <path d="M44.2457835,48.8909606 C41.7333335,48.6867646 38.1969274,48.4900392 35.8567814,49.1150781 C35.7785994,48.5473137 34.9493391,48.8461371 34.6533102,48.8249704 C33.2923366,48.7328332 32.5647888,48.9320488 31.4573373,49.0030193 C27.7345847,49.2433231 23.7651415,48.7502646 19.8659102,48.807539 C17.8551912,48.8349312 16.1534049,48.7614704 14.4690766,48.7054411 C13.3289861,48.666843 12.2298841,48.8934508 11.0734739,48.8847351 C9.44417671,48.871039 7.86383809,48.5859117 6.27439089,48.628245 C1.84382581,48.7465293 -2.84405666,49.1125879 -7.10763112,49.0465977 C-7.76117173,49.0353919 -8.40826043,48.7876175 -9.11075966,48.7639606 C-10.50627,48.7216273 -11.7841279,49.2383427 -12.909417,48.5 C-13.6331696,49.0416173 -14.6738248,48.81999 -15.5030851,48.81999 C-23.6708247,48.8399116 -33.2071283,49.4089211 -40.286013,48.5933823 C-40.7042487,48.7290979 -40.8682031,49.0528232 -41.4765803,49.0515781 C-42.2602977,48.895941 -43.0276956,48.7253626 -43.8831431,48.6245097 C-45.2896596,49.2707153 -47.7952781,49.1150781 -47.8442368,50.751136 C-47.0426817,50.6888811 -47.5220207,51.6139885 -46.6343137,51.4882336 C-45.6733585,51.4521258 -45.7450886,50.661489 -44.8520683,50.5768224 C-42.8929645,50.2232147 -41.4894842,50.4149597 -39.657521,50.3788519 C-38.5948534,50.3614205 -37.4927152,50.1323226 -36.6634549,50.2045383 C-36.3624922,50.2306853 -35.7818203,50.5033616 -35.4599838,50.4921557 C-34.7377493,50.4672538 -34.1881983,50.1671853 -33.4663433,50.1771461 C-32.6420169,50.1871069 -31.8696852,50.4411068 -31.0631963,50.4535577 C-29.2206065,50.4834401 -27.7423599,50.5133224 -26.4675382,50.4137146 C-25.9783316,50.3738715 -25.5293545,50.1074207 -25.0739255,50.1024403 C-24.0708431,50.0912344 -23.2059076,50.4037538 -22.2741758,50.3751166 C-21.0672889,50.3377637 -19.8448416,49.9542737 -18.6838772,49.8969992 C-15.3535526,49.7301562 -12.0524514,50.2605676 -8.68645164,50.2555873 C-7.68147166,50.2530971 -6.70191979,49.9443129 -5.69428313,49.9306168 C-5.3010961,49.9243914 -4.88475809,50.2157441 -4.49119153,50.2182343 C-3.80842756,50.2207245 -3.19208032,49.9281267 -2.4975511,49.9019796 C-0.86028386,49.8397247 0.879834431,50.1646951 2.50078213,50.1559795 C4.22268327,50.1472638 5.95786774,49.8148228 7.69153412,49.8123326 C8.94662053,49.8073522 10.3011423,50.0538815 11.6932369,50.0750481 C13.964689,50.1099109 16.3424079,49.8783228 18.2901259,50.316597 C18.7520068,50.1211167 20.3293093,50.3527048 21.0838033,49.9916266 C23.5279389,50.5880282 26.2301509,49.9953619 29.0777207,50.0700677 C29.6272717,50.0850089 30.1035746,50.3228225 30.6793127,50.355195 C31.5442483,50.4037538 32.6710555,50.2319304 33.6737584,50.1796363 C34.8176442,50.1186265 35.9186438,49.9542737 37.0697406,50.0003423 C37.964279,50.0339599 38.8242808,50.2755088 39.6713787,50.2755088 C40.2323154,50.2742637 40.8376565,49.9517835 41.4650099,49.9604992 C42.1234844,49.97046 42.840785,50.265548 43.468518,50.2418912 C44.2488197,50.2120088 44.9384151,49.9468031 45.6606496,49.9231463 C47.6239281,49.8608914 51.4184106,50.5270185 51.8442368,49.2719604 C49.6980276,48.7452842 47.0375632,49.1150781 44.2457835,48.8909606" id="utilities-/-lines-/-vertical" transform="translate(2.000000, 50.000000) scale(-1, 1) rotate(90.000000) translate(-2.000000, -50.000000) "></path>
                    </g>
                    <g id="Top" fill="#1C1E20">
                        <path d="M318.703415,0.390960566 C310.008376,0.186764601 297.769648,-0.00996077874 289.670914,0.615078087 C289.400343,0.047313699 286.530455,0.346137061 285.505964,0.324970407 C280.795932,0.232833203 278.278048,0.432048778 274.4454,0.503019327 C261.561768,0.743323114 247.824394,0.250264566 234.330007,0.307539044 C227.371349,0.334931185 221.481838,0.261470442 215.652747,0.205441062 C211.707143,0.166843044 207.903391,0.39345076 203.901309,0.384735079 C198.262667,0.371039008 192.793461,0.0859117167 187.292732,0.128245026 C171.959515,0.246529274 155.73578,0.612587893 140.980481,0.546597734 C138.71872,0.535391858 136.479287,0.287617486 134.048091,0.263960637 C129.218535,0.221627327 124.796149,0.738342724 120.901769,0 C118.39702,0.541617344 114.79554,0.319990017 111.925651,0.319990017 C83.6588913,0.339911575 50.6558304,0.90892106 26.1573589,0.0933823007 C24.7099369,0.229097911 24.1425265,0.55282322 22.0370659,0.551578123 C19.3247915,0.395940955 16.6689953,0.225362619 13.7084788,0.124509734 C8.84083269,0.770715255 0.169435064,0.615078087 0,2.251136 C2.77400663,2.18888113 1.11511914,3.11398845 4.18727895,2.98823362 C7.51293463,2.9521258 7.26469256,2.16148899 10.3552407,2.07682237 C17.1352701,1.72321472 21.9924086,1.91495971 28.3324323,1.87885189 C32.0100926,1.86142053 35.8243517,1.63232262 38.6942402,1.70453826 C39.7358062,1.73068531 41.7453848,2.00336162 42.8591905,1.99215575 C45.3586861,1.9672538 47.2605619,1.66718534 49.758744,1.67714612 C52.6115576,1.6871069 55.2844286,1.94110676 58.0755101,1.95355773 C64.4523103,1.98344007 69.5681985,2.0133224 73.9800774,1.91371462 C75.6731146,1.8738715 77.2269261,1.60742067 78.8030662,1.60244028 C82.2745149,1.5912344 85.2678677,1.90375384 88.4923877,1.8751166 C92.669159,1.83776368 96.8997819,1.4542737 100.917626,1.39699922 C112.44315,1.23015617 123.86754,1.76056764 135.516529,1.75558725 C138.994544,1.75309706 142.384559,1.44431292 145.871769,1.43061685 C147.232504,1.42439136 148.673358,1.71574414 150.035406,1.71823433 C152.398303,1.72072453 154.531346,1.42812665 156.934959,1.40197961 C162.601183,1.33972474 168.623352,1.66469515 174.233097,1.65597947 C180.192221,1.64726378 186.197314,1.31482279 192.197155,1.3123326 C196.540734,1.30735221 201.228438,1.55388148 206.046173,1.57504814 C213.907171,1.60991086 222.135936,1.37832276 228.876562,1.81659702 C230.475031,1.62111674 235.93373,1.85270485 238.544869,1.49162662 C247.003487,2.08802824 256.355252,1.49536191 266.210068,1.57006775 C268.111944,1.58500892 269.760324,1.82282251 271.752828,1.85519504 C274.746181,1.90375384 278.645814,1.7319304 282.115949,1.67963632 C286.074688,1.61862655 289.885006,1.4542737 293.868701,1.5003423 C296.964503,1.53395993 299.940781,1.77550881 302.872401,1.77550881 C304.81368,1.77426371 306.908633,1.4517835 309.079766,1.46049918 C311.358602,1.47045996 313.841023,1.76554803 316.01347,1.74189118 C318.713923,1.71200885 321.100462,1.44680311 323.599957,1.42314626 C330.394435,1.3608914 343.526309,2.02701847 345,0.771960353 C337.57244,0.245284177 328.365154,0.615078087 318.703415,0.390960566" id="utilities-/-lines-/-horizontal" transform="translate(172.500000, 1.500000) scale(-1, 1) translate(-172.500000, -1.500000) "></path>
                    </g>
                    <g id="Left" fill="#1C1E20">
                        <path d="M44.2457835,48.8909606 C41.7333335,48.6867646 38.1969274,48.4900392 35.8567814,49.1150781 C35.7785994,48.5473137 34.9493391,48.8461371 34.6533102,48.8249704 C33.2923366,48.7328332 32.5647888,48.9320488 31.4573373,49.0030193 C27.7345847,49.2433231 23.7651415,48.7502646 19.8659102,48.807539 C17.8551912,48.8349312 16.1534049,48.7614704 14.4690766,48.7054411 C13.3289861,48.666843 12.2298841,48.8934508 11.0734739,48.8847351 C9.44417671,48.871039 7.86383809,48.5859117 6.27439089,48.628245 C1.84382581,48.7465293 -2.84405666,49.1125879 -7.10763112,49.0465977 C-7.76117173,49.0353919 -8.40826043,48.7876175 -9.11075966,48.7639606 C-10.50627,48.7216273 -11.7841279,49.2383427 -12.909417,48.5 C-13.6331696,49.0416173 -14.6738248,48.81999 -15.5030851,48.81999 C-23.6708247,48.8399116 -33.2071283,49.4089211 -40.286013,48.5933823 C-40.7042487,48.7290979 -40.8682031,49.0528232 -41.4765803,49.0515781 C-42.2602977,48.895941 -43.0276956,48.7253626 -43.8831431,48.6245097 C-45.2896596,49.2707153 -47.7952781,49.1150781 -47.8442368,50.751136 C-47.0426817,50.6888811 -47.5220207,51.6139885 -46.6343137,51.4882336 C-45.6733585,51.4521258 -45.7450886,50.661489 -44.8520683,50.5768224 C-42.8929645,50.2232147 -41.4894842,50.4149597 -39.657521,50.3788519 C-38.5948534,50.3614205 -37.4927152,50.1323226 -36.6634549,50.2045383 C-36.3624922,50.2306853 -35.7818203,50.5033616 -35.4599838,50.4921557 C-34.7377493,50.4672538 -34.1881983,50.1671853 -33.4663433,50.1771461 C-32.6420169,50.1871069 -31.8696852,50.4411068 -31.0631963,50.4535577 C-29.2206065,50.4834401 -27.7423599,50.5133224 -26.4675382,50.4137146 C-25.9783316,50.3738715 -25.5293545,50.1074207 -25.0739255,50.1024403 C-24.0708431,50.0912344 -23.2059076,50.4037538 -22.2741758,50.3751166 C-21.0672889,50.3377637 -19.8448416,49.9542737 -18.6838772,49.8969992 C-15.3535526,49.7301562 -12.0524514,50.2605676 -8.68645164,50.2555873 C-7.68147166,50.2530971 -6.70191979,49.9443129 -5.69428313,49.9306168 C-5.3010961,49.9243914 -4.88475809,50.2157441 -4.49119153,50.2182343 C-3.80842756,50.2207245 -3.19208032,49.9281267 -2.4975511,49.9019796 C-0.86028386,49.8397247 0.879834431,50.1646951 2.50078213,50.1559795 C4.22268327,50.1472638 5.95786774,49.8148228 7.69153412,49.8123326 C8.94662053,49.8073522 10.3011423,50.0538815 11.6932369,50.0750481 C13.964689,50.1099109 16.3424079,49.8783228 18.2901259,50.316597 C18.7520068,50.1211167 20.3293093,50.3527048 21.0838033,49.9916266 C23.5279389,50.5880282 26.2301509,49.9953619 29.0777207,50.0700677 C29.6272717,50.0850089 30.1035746,50.3228225 30.6793127,50.355195 C31.5442483,50.4037538 32.6710555,50.2319304 33.6737584,50.1796363 C34.8176442,50.1186265 35.9186438,49.9542737 37.0697406,50.0003423 C37.964279,50.0339599 38.8242808,50.2755088 39.6713787,50.2755088 C40.2323154,50.2742637 40.8376565,49.9517835 41.4650099,49.9604992 C42.1234844,49.97046 42.840785,50.265548 43.468518,50.2418912 C44.2488197,50.2120088 44.9384151,49.9468031 45.6606496,49.9231463 C47.6239281,49.8608914 51.4184106,50.5270185 51.8442368,49.2719604 C49.6980276,48.7452842 47.0375632,49.1150781 44.2457835,48.8909606" id="utilities-/-lines-/-vertical" transform="translate(2.000000, 50.000000) scale(-1, 1) rotate(90.000000) translate(-2.000000, -50.000000) "></path>
                    </g>
                </g>
            </g>
        </g>
    </g>
</svg>