<?xml version="1.0" encoding="UTF-8"?>
<svg width="87px" height="18px" viewBox="0 0 87 18" version="1.1" xmlns="http://www.w3.org/2000/svg" xmlns:xlink="http://www.w3.org/1999/xlink">
    <!-- Generator: Sketch 58 (84663) - https://sketch.com -->
    <title>⚙️ components / progress ui / dots</title>
    <desc>Created with Sketch.</desc>
    <g id="Page-1" stroke="none" stroke-width="1" fill="none" fill-rule="evenodd">
        <g id="iPhone-XS-Copy" transform="translate(-145.000000, -595.000000)" fill="#1C1E20">
            <g id="article-card" transform="translate(26.000000, 147.000000)">
                <g id="⚙️-components-/-progress-ui-/-dots" transform="translate(119.000000, 448.000000)">
                    <g id="⭕️-dot-3" transform="translate(68.000000, 0.000000)">
                        <path d="M18.6513032,8.41796232 C18.452048,8.7461599 17.7945055,8.78591054 17.6062093,9.07639598 C17.2654827,8.72475571 16.7364599,9.15283952 16.653769,9.14978178 C15.8746808,8.96020181 15.2908628,8.72475571 14.826598,8.49440585 C14.7588512,8.12339989 15.0876224,7.68206586 15.0627155,7.22442389 C15.0358161,6.73008901 14.7777805,6.27142779 14.4868677,5.8565942 C14.178022,5.44685684 13.8661875,5.06158141 13.6201072,4.60597793 C13.1937009,3.76509902 12.2093798,3.22795576 11.3625448,2.79783346 C11.1005241,2.68265853 10.9331497,2.28719063 10.6482146,2.1546885 C10.0564264,1.82852941 9.28331591,1.82445242 8.62975857,1.87643403 C6.34430043,2.1740542 4.46432679,3.07914568 2.97588979,5.05342743 C2.88522864,5.1563714 2.92308714,5.39589448 2.83541482,5.50189618 C2.68597335,5.68230293 2.31635479,5.75059249 2.17388726,5.98501934 C1.85009742,6.46100776 1.76043254,7.08376778 1.68670808,7.66575791 C1.6478533,8.26099825 1.62792777,8.82158419 1.48247142,9.36178519 C1.4366427,9.54117269 1.48247142,9.68590579 1.14772253,9.86733178 C1.57114002,10.062008 1.3310374,10.428937 1.40177302,10.7612115 C1.57014374,11.406395 2.08721121,11.9730964 1.90688518,12.5938179 C2.55346858,12.7436473 2.83142971,13.1605194 3.12533126,13.7047973 C3.42720302,14.2246134 3.76593701,14.891201 4.36768798,15.2132831 C4.54901029,15.3274388 4.75324696,15.4059209 4.96545384,15.4966339 C5.17068678,15.6005971 5.39086388,15.6984448 5.62598511,15.8370624 C6.21976587,16.2080684 6.99486894,16.3793019 7.62351937,16.3334358 C8.1635012,16.3181471 8.69650909,16.5525739 9.09501967,16.4058023 C9.23848347,16.3538207 9.52042971,16.4914191 9.49153769,15.8839478 C10.3184471,16.2865504 11.0377587,15.625059 11.8019027,15.1490706 C12.3677878,14.7902956 13.1149951,14.5181566 13.5344275,13.9718401 C13.9150051,13.4744475 14.0983199,12.7854364 14.2069141,12.2350429 C14.2407875,12.0067316 14.2597167,11.777401 14.2756571,11.567436 C14.2696795,11.3472787 14.2507502,11.1413907 14.224847,10.9589455 C14.044521,10.1496632 13.4796323,9.92848661 14.721989,9.48613334 C15.8149042,9.0509148 16.4106775,8.99281772 17.8283789,9.58296182 C17.9559023,10.0069686 18.0435746,10.3667629 17.9389656,10.8111547 C17.8931369,11.0537355 17.6171683,11.2575849 17.547429,11.497108 C17.4637417,11.8283633 17.558388,12.2360622 17.4607529,12.581587 C17.1708365,13.6140844 16.5142903,14.6251775 15.7700718,15.4548447 C14.8475198,16.4903998 13.5463828,17.2161038 12.177499,17.6054562 C10.7906822,17.9835969 9.36600686,18.041694 7.93734645,17.9774815 C5.6479032,17.8623065 3.59557374,16.4608417 2.16591705,14.7770454 C1.63988309,14.1481699 1.09691243,13.5101211 0.693420477,12.7640322 C0.304872667,12.0199818 -0.0099506869,11.1964301 0.0010083539,10.3351662 C-0.00795813403,8.91127794 0.0279078177,7.5597562 0.741241746,5.98400009 C1.29915655,4.76905747 2.13204365,3.68152075 3.09444669,2.72648616 C3.74900031,2.07212948 4.65262304,1.64098793 5.45960695,1.28425142 C6.28153501,0.942803625 7.00283915,0.631933241 7.53385449,0 C7.65739277,0.135559873 7.66337043,0.511662076 7.92339858,0.323101351 C9.10099733,-0.166137288 10.3822088,0.328197586 11.5737554,0.660472161 C12.516233,0.907129975 13.5244647,1.2210581 14.3673146,1.81222146 C15.4134048,2.52263673 16.5680892,3.2157248 17.3431923,4.28287658 C17.6659859,4.76599973 17.9140587,5.14108269 18.1810608,5.59362843 C18.2737145,5.74753475 18.2806884,5.99113482 18.3673645,6.13994491 C18.4968804,6.37131401 18.8226628,6.52318184 18.8993761,6.78003213 C19.0328771,7.26213603 18.5765825,7.84004917 19,8.22430535 C18.4351113,8.11218817 18.3275134,8.27730621 18.6513032,8.41796232" id="dot"></path>
                    </g>
                    <g id="⭕️-dot-2" transform="translate(34.000000, 0.000000)">
                        <path d="M18.6513032,8.41796232 C18.452048,8.7461599 17.7945055,8.78591054 17.6062093,9.07639598 C17.2654827,8.72475571 16.7364599,9.15283952 16.653769,9.14978178 C15.8746808,8.96020181 15.2908628,8.72475571 14.826598,8.49440585 C14.7588512,8.12339989 15.0876224,7.68206586 15.0627155,7.22442389 C15.0358161,6.73008901 14.7777805,6.27142779 14.4868677,5.8565942 C14.178022,5.44685684 13.8661875,5.06158141 13.6201072,4.60597793 C13.1937009,3.76509902 12.2093798,3.22795576 11.3625448,2.79783346 C11.1005241,2.68265853 10.9331497,2.28719063 10.6482146,2.1546885 C10.0564264,1.82852941 9.28331591,1.82445242 8.62975857,1.87643403 C6.34430043,2.1740542 4.46432679,3.07914568 2.97588979,5.05342743 C2.88522864,5.1563714 2.92308714,5.39589448 2.83541482,5.50189618 C2.68597335,5.68230293 2.31635479,5.75059249 2.17388726,5.98501934 C1.85009742,6.46100776 1.76043254,7.08376778 1.68670808,7.66575791 C1.6478533,8.26099825 1.62792777,8.82158419 1.48247142,9.36178519 C1.4366427,9.54117269 1.48247142,9.68590579 1.14772253,9.86733178 C1.57114002,10.062008 1.3310374,10.428937 1.40177302,10.7612115 C1.57014374,11.406395 2.08721121,11.9730964 1.90688518,12.5938179 C2.55346858,12.7436473 2.83142971,13.1605194 3.12533126,13.7047973 C3.42720302,14.2246134 3.76593701,14.891201 4.36768798,15.2132831 C4.54901029,15.3274388 4.75324696,15.4059209 4.96545384,15.4966339 C5.17068678,15.6005971 5.39086388,15.6984448 5.62598511,15.8370624 C6.21976587,16.2080684 6.99486894,16.3793019 7.62351937,16.3334358 C8.1635012,16.3181471 8.69650909,16.5525739 9.09501967,16.4058023 C9.23848347,16.3538207 9.52042971,16.4914191 9.49153769,15.8839478 C10.3184471,16.2865504 11.0377587,15.625059 11.8019027,15.1490706 C12.3677878,14.7902956 13.1149951,14.5181566 13.5344275,13.9718401 C13.9150051,13.4744475 14.0983199,12.7854364 14.2069141,12.2350429 C14.2407875,12.0067316 14.2597167,11.777401 14.2756571,11.567436 C14.2696795,11.3472787 14.2507502,11.1413907 14.224847,10.9589455 C14.044521,10.1496632 13.4796323,9.92848661 14.721989,9.48613334 C15.8149042,9.0509148 16.4106775,8.99281772 17.8283789,9.58296182 C17.9559023,10.0069686 18.0435746,10.3667629 17.9389656,10.8111547 C17.8931369,11.0537355 17.6171683,11.2575849 17.547429,11.497108 C17.4637417,11.8283633 17.558388,12.2360622 17.4607529,12.581587 C17.1708365,13.6140844 16.5142903,14.6251775 15.7700718,15.4548447 C14.8475198,16.4903998 13.5463828,17.2161038 12.177499,17.6054562 C10.7906822,17.9835969 9.36600686,18.041694 7.93734645,17.9774815 C5.6479032,17.8623065 3.59557374,16.4608417 2.16591705,14.7770454 C1.63988309,14.1481699 1.09691243,13.5101211 0.693420477,12.7640322 C0.304872667,12.0199818 -0.0099506869,11.1964301 0.0010083539,10.3351662 C-0.00795813403,8.91127794 0.0279078177,7.5597562 0.741241746,5.98400009 C1.29915655,4.76905747 2.13204365,3.68152075 3.09444669,2.72648616 C3.74900031,2.07212948 4.65262304,1.64098793 5.45960695,1.28425142 C6.28153501,0.942803625 7.00283915,0.631933241 7.53385449,0 C7.65739277,0.135559873 7.66337043,0.511662076 7.92339858,0.323101351 C9.10099733,-0.166137288 10.3822088,0.328197586 11.5737554,0.660472161 C12.516233,0.907129975 13.5244647,1.2210581 14.3673146,1.81222146 C15.4134048,2.52263673 16.5680892,3.2157248 17.3431923,4.28287658 C17.6659859,4.76599973 17.9140587,5.14108269 18.1810608,5.59362843 C18.2737145,5.74753475 18.2806884,5.99113482 18.3673645,6.13994491 C18.4968804,6.37131401 18.8226628,6.52318184 18.8993761,6.78003213 C19.0328771,7.26213603 18.5765825,7.84004917 19,8.22430535 C18.4351113,8.11218817 18.3275134,8.27730621 18.6513032,8.41796232" id="dot"></path>
                    </g>
                    <g id="⭕️-dot-1">
                        <path d="M18.6513032,8.41796232 C18.452048,8.7461599 17.7945055,8.78591054 17.6062093,9.07639598 C17.2654827,8.72475571 16.7364599,9.15283952 16.653769,9.14978178 C15.8746808,8.96020181 15.2908628,8.72475571 14.826598,8.49440585 C14.7588512,8.12339989 15.0876224,7.68206586 15.0627155,7.22442389 C15.0358161,6.73008901 14.7777805,6.27142779 14.4868677,5.8565942 C14.178022,5.44685684 13.8661875,5.06158141 13.6201072,4.60597793 C13.1937009,3.76509902 12.2093798,3.22795576 11.3625448,2.79783346 C11.1005241,2.68265853 10.9331497,2.28719063 10.6482146,2.1546885 C10.0564264,1.82852941 9.28331591,1.82445242 8.62975857,1.87643403 C6.34430043,2.1740542 4.46432679,3.07914568 2.97588979,5.05342743 C2.88522864,5.1563714 2.92308714,5.39589448 2.83541482,5.50189618 C2.68597335,5.68230293 2.31635479,5.75059249 2.17388726,5.98501934 C1.85009742,6.46100776 1.76043254,7.08376778 1.68670808,7.66575791 C1.6478533,8.26099825 1.62792777,8.82158419 1.48247142,9.36178519 C1.4366427,9.54117269 1.48247142,9.68590579 1.14772253,9.86733178 C1.57114002,10.062008 1.3310374,10.428937 1.40177302,10.7612115 C1.57014374,11.406395 2.08721121,11.9730964 1.90688518,12.5938179 C2.55346858,12.7436473 2.83142971,13.1605194 3.12533126,13.7047973 C3.42720302,14.2246134 3.76593701,14.891201 4.36768798,15.2132831 C4.54901029,15.3274388 4.75324696,15.4059209 4.96545384,15.4966339 C5.17068678,15.6005971 5.39086388,15.6984448 5.62598511,15.8370624 C6.21976587,16.2080684 6.99486894,16.3793019 7.62351937,16.3334358 C8.1635012,16.3181471 8.69650909,16.5525739 9.09501967,16.4058023 C9.23848347,16.3538207 9.52042971,16.4914191 9.49153769,15.8839478 C10.3184471,16.2865504 11.0377587,15.625059 11.8019027,15.1490706 C12.3677878,14.7902956 13.1149951,14.5181566 13.5344275,13.9718401 C13.9150051,13.4744475 14.0983199,12.7854364 14.2069141,12.2350429 C14.2407875,12.0067316 14.2597167,11.777401 14.2756571,11.567436 C14.2696795,11.3472787 14.2507502,11.1413907 14.224847,10.9589455 C14.044521,10.1496632 13.4796323,9.92848661 14.721989,9.48613334 C15.8149042,9.0509148 16.4106775,8.99281772 17.8283789,9.58296182 C17.9559023,10.0069686 18.0435746,10.3667629 17.9389656,10.8111547 C17.8931369,11.0537355 17.6171683,11.2575849 17.547429,11.497108 C17.4637417,11.8283633 17.558388,12.2360622 17.4607529,12.581587 C17.1708365,13.6140844 16.5142903,14.6251775 15.7700718,15.4548447 C14.8475198,16.4903998 13.5463828,17.2161038 12.177499,17.6054562 C10.7906822,17.9835969 9.36600686,18.041694 7.93734645,17.9774815 C5.6479032,17.8623065 3.59557374,16.4608417 2.16591705,14.7770454 C1.63988309,14.1481699 1.09691243,13.5101211 0.693420477,12.7640322 C0.304872667,12.0199818 -0.0099506869,11.1964301 0.0010083539,10.3351662 C-0.00795813403,8.91127794 0.0279078177,7.5597562 0.741241746,5.98400009 C1.29915655,4.76905747 2.13204365,3.68152075 3.09444669,2.72648616 C3.74900031,2.07212948 4.65262304,1.64098793 5.45960695,1.28425142 C6.28153501,0.942803625 7.00283915,0.631933241 7.53385449,0 C7.65739277,0.135559873 7.66337043,0.511662076 7.92339858,0.323101351 C9.10099733,-0.166137288 10.3822088,0.328197586 11.5737554,0.660472161 C12.516233,0.907129975 13.5244647,1.2210581 14.3673146,1.81222146 C15.4134048,2.52263673 16.5680892,3.2157248 17.3431923,4.28287658 C17.6659859,4.76599973 17.9140587,5.14108269 18.1810608,5.59362843 C18.2737145,5.74753475 18.2806884,5.99113482 18.3673645,6.13994491 C18.4968804,6.37131401 18.8226628,6.52318184 18.8993761,6.78003213 C19.0328771,7.26213603 18.5765825,7.84004917 19,8.22430535 C18.4351113,8.11218817 18.3275134,8.27730621 18.6513032,8.41796232" id="dot"></path>
                    </g>
                </g>
            </g>
        </g>
    </g>
</svg>