<?xml version="1.0" encoding="UTF-8"?>
<svg width="359px" height="252px" viewBox="0 0 359 252" version="1.1" xmlns="http://www.w3.org/2000/svg" xmlns:xlink="http://www.w3.org/1999/xlink">
    <!-- Generator: Sketch 58 (84663) - https://sketch.com -->
    <title>Group 3</title>
    <desc>Created with Sketch.</desc>
    <g id="Page-1" stroke="none" stroke-width="1" fill="none" fill-rule="evenodd">
        <g id="iPhone-XS-Copy" transform="translate(0.000000, -437.000000)">
            <g id="Group-3" transform="translate(-21.000000, 437.000000)">
                <g id="📦-Modals-and-boxes-/-basic-box">
                    <rect id="modal-bg" fill="#FFFFFF" x="0" y="0" width="380" height="250"></rect>
                    <g id="🛠-utilities-/-lines-/-horizontal" transform="translate(0.000000, 248.500000)" fill="#1C1E20">
                        <path d="M351.035646,0.390960566 C341.458501,0.186764601 327.978162,-0.00996077874 319.057818,0.615078087 C318.759799,0.047313699 315.598762,0.346137061 314.470337,0.324970407 C309.282476,0.232833203 306.509154,0.432048778 302.287687,0.503019327 C288.09702,0.743323114 272.965999,0.250264566 258.102617,0.307539044 C250.438007,0.334931185 243.95101,0.261470442 237.530562,0.205441062 C233.184679,0.166843044 228.995039,0.39345076 224.586948,0.384735079 C218.376271,0.371039008 212.352218,0.0859117167 206.293444,0.128245026 C189.404683,0.246529274 171.535062,0.612587893 155.282849,0.546597734 C152.791634,0.535391858 150.325012,0.287617486 147.647173,0.263960637 C142.327662,0.221627327 137.456628,0.738342724 133.167166,0 C130.408312,0.541617344 126.441464,0.319990017 123.280427,0.319990017 C92.1460252,0.339911575 55.7948277,0.90892106 28.811004,0.0933823007 C27.2167421,0.229097911 26.5917683,0.55282322 24.2727103,0.551578123 C21.2852776,0.395940955 18.3600528,0.225362619 15.099194,0.124509734 C9.73772876,0.770715255 0.186624129,0.615078087 0,2.251136 C3.05542759,2.18888113 1.22824717,3.11398845 4.61207537,2.98823362 C8.2751164,2.9521258 8.00169035,2.16148899 11.4057723,2.07682237 C18.8736309,1.72321472 24.2235226,1.91495971 31.206737,1.87885189 C35.2574933,1.86142053 39.4587063,1.63232262 42.6197429,1.70453826 C43.7669749,1.73068531 45.9804239,2.00336162 47.2072244,1.99215575 C49.9602919,1.9672538 52.0551116,1.66718534 54.8067325,1.67714612 C57.948962,1.6871069 60.8929938,1.94110676 63.9672285,1.95355773 C70.9909505,1.98344007 76.6258418,2.0133224 81.4853027,1.91371462 C83.3500973,1.8738715 85.0615418,1.60742067 86.7975802,1.60244028 C90.6212048,1.5912344 93.9182311,1.90375384 97.4698763,1.8751166 C102.070378,1.83776368 106.730195,1.4542737 111.155646,1.39699922 C123.850427,1.23015617 136.433812,1.76056764 149.264582,1.75558725 C153.09544,1.75309706 156.82937,1.44431292 160.670354,1.43061685 C162.169134,1.42439136 163.756163,1.71574414 165.256389,1.71823433 C167.859,1.72072453 170.208439,1.42812665 172.855897,1.40197961 C179.096955,1.33972474 185.730069,1.66469515 191.908919,1.65597947 C198.472591,1.64726378 205.086897,1.31482279 211.695417,1.3123326 C216.479649,1.30735221 221.642917,1.55388148 226.949407,1.57504814 C235.607899,1.60991086 244.671466,1.37832276 252.095924,1.81659702 C253.856556,1.62111674 259.869036,1.85270485 262.745073,1.49162662 C272.061812,2.08802824 282.362307,1.49536191 293.216887,1.57006775 C295.311706,1.58500892 297.127313,1.82282251 299.321955,1.85519504 C302.618981,1.90375384 306.91423,1.7319304 310.736408,1.67963632 C315.096757,1.61862655 319.29363,1.4542737 323.681467,1.5003423 C327.091336,1.53395993 330.369555,1.77550881 333.598587,1.77550881 C335.736807,1.77426371 338.044292,1.4517835 340.435685,1.46049918 C342.945707,1.47045996 345.679967,1.76554803 348.072807,1.74189118 C351.047219,1.71200885 353.675871,1.44680311 356.428939,1.42314626 C363.912711,1.3608914 378.376804,2.02701847 380,0.771960353 C371.818919,0.245284177 361.677561,0.615078087 351.035646,0.390960566" id="utilities-/-lines-/-horizontal" transform="translate(190.000000, 1.500000) scale(-1, 1) translate(-190.000000, -1.500000) "></path>
                    </g>
                    <g id="🛠-utilities-/-lines-/-vertical" transform="translate(376.000000, 0.000000)" fill="#1C1E20">
                        <path d="M107.614459,123.890961 C101.333334,123.686765 92.4923184,123.490039 86.6419534,124.115078 C86.4464985,123.547314 84.3733477,123.846137 83.6332756,123.82497 C80.2308415,123.732833 78.4119719,123.932049 75.6433431,124.003019 C66.3364618,124.243323 56.4128538,123.750265 46.6647756,123.807539 C41.6379781,123.834931 37.3835122,123.76147 33.1726916,123.705441 C30.3224651,123.666843 27.5747102,123.893451 24.6836849,123.884735 C20.6104418,123.871039 16.6595952,123.585912 12.6859772,123.628245 C1.60956452,123.746529 -10.1101417,124.112588 -20.7690778,124.046598 C-22.4029293,124.035392 -24.0206511,123.787617 -25.7768991,123.763961 C-29.265675,123.721627 -32.4603197,124.238343 -35.2735425,123.5 C-37.082924,124.041617 -39.6845621,123.81999 -41.7577129,123.81999 C-62.1770617,123.839912 -86.0178208,124.408921 -103.715033,123.593382 C-104.760622,123.729098 -105.170508,124.052823 -106.691451,124.051578 C-108.650744,123.895941 -110.569239,123.725363 -112.707858,123.62451 C-116.224149,124.270715 -122.488195,124.115078 -122.610592,125.751136 C-120.606704,125.688881 -121.805052,126.613988 -119.585784,126.488234 C-117.183396,126.452126 -117.362722,125.661489 -115.130171,125.576822 C-110.232411,125.223215 -106.72371,125.41496 -102.143803,125.378852 C-99.4871334,125.361421 -96.731788,125.132323 -94.6586372,125.204538 C-93.9062306,125.230685 -92.4545507,125.503362 -91.6499594,125.492156 C-89.8443732,125.467254 -88.4704957,125.167185 -86.6658584,125.177146 C-84.6050421,125.187107 -82.674213,125.441107 -80.6579908,125.453558 C-76.0515163,125.48344 -72.3558998,125.513322 -69.1688456,125.413715 C-67.945829,125.373872 -66.8233863,125.107421 -65.6848138,125.10244 C-63.1771079,125.091234 -61.0147689,125.403754 -58.6854394,125.375117 C-55.6682223,125.337764 -52.6121039,124.954274 -49.7096929,124.896999 C-41.3838816,124.730156 -33.1311286,125.260568 -24.7161291,125.255587 C-22.2036791,125.253097 -19.7547995,124.944313 -17.2357078,124.930617 C-16.2527403,124.924391 -15.2118952,125.215744 -14.2279788,125.218234 C-12.5210689,125.220725 -10.9802008,124.928127 -9.24387776,124.90198 C-5.15070965,124.839725 -0.800413923,125.164695 3.25195534,125.155979 C7.55670816,125.147264 11.8946694,124.814823 16.2288353,124.812333 C19.3665513,124.807352 22.7528557,125.053881 26.2330923,125.075048 C31.9117226,125.109911 37.8560198,124.878323 42.7253148,125.316597 C43.8800171,125.121117 47.8232731,125.352705 49.7095082,124.991627 C55.8198473,125.588028 62.5753774,124.995362 69.6943019,125.070068 C71.0681793,125.085009 72.2589364,125.322823 73.6982818,125.355195 C75.8606207,125.403754 78.6776388,125.23193 81.1843959,125.179636 C84.0441105,125.118627 86.7966095,124.954274 89.6743515,125.000342 C91.9106976,125.03396 94.060702,125.275509 96.1784468,125.275509 C97.5807886,125.274264 99.0941412,124.951784 100.662525,124.960499 C102.308711,124.97046 104.101963,125.265548 105.671295,125.241891 C107.622049,125.212009 109.346038,124.946803 111.151624,124.923146 C116.05982,124.860891 125.546027,125.527018 126.610592,124.27196 C121.245069,123.745284 114.593908,124.115078 107.614459,123.890961" id="utilities-/-lines-/-vertical" transform="translate(2.000000, 125.000000) scale(-1, 1) rotate(90.000000) translate(-2.000000, -125.000000) "></path>
                    </g>
                    <g id="🛠-utilities-/-lines-/-horizontal" fill="#1C1E20">
                        <path d="M351.035646,0.390960566 C341.458501,0.186764601 327.978162,-0.00996077874 319.057818,0.615078087 C318.759799,0.047313699 315.598762,0.346137061 314.470337,0.324970407 C309.282476,0.232833203 306.509154,0.432048778 302.287687,0.503019327 C288.09702,0.743323114 272.965999,0.250264566 258.102617,0.307539044 C250.438007,0.334931185 243.95101,0.261470442 237.530562,0.205441062 C233.184679,0.166843044 228.995039,0.39345076 224.586948,0.384735079 C218.376271,0.371039008 212.352218,0.0859117167 206.293444,0.128245026 C189.404683,0.246529274 171.535062,0.612587893 155.282849,0.546597734 C152.791634,0.535391858 150.325012,0.287617486 147.647173,0.263960637 C142.327662,0.221627327 137.456628,0.738342724 133.167166,0 C130.408312,0.541617344 126.441464,0.319990017 123.280427,0.319990017 C92.1460252,0.339911575 55.7948277,0.90892106 28.811004,0.0933823007 C27.2167421,0.229097911 26.5917683,0.55282322 24.2727103,0.551578123 C21.2852776,0.395940955 18.3600528,0.225362619 15.099194,0.124509734 C9.73772876,0.770715255 0.186624129,0.615078087 0,2.251136 C3.05542759,2.18888113 1.22824717,3.11398845 4.61207537,2.98823362 C8.2751164,2.9521258 8.00169035,2.16148899 11.4057723,2.07682237 C18.8736309,1.72321472 24.2235226,1.91495971 31.206737,1.87885189 C35.2574933,1.86142053 39.4587063,1.63232262 42.6197429,1.70453826 C43.7669749,1.73068531 45.9804239,2.00336162 47.2072244,1.99215575 C49.9602919,1.9672538 52.0551116,1.66718534 54.8067325,1.67714612 C57.948962,1.6871069 60.8929938,1.94110676 63.9672285,1.95355773 C70.9909505,1.98344007 76.6258418,2.0133224 81.4853027,1.91371462 C83.3500973,1.8738715 85.0615418,1.60742067 86.7975802,1.60244028 C90.6212048,1.5912344 93.9182311,1.90375384 97.4698763,1.8751166 C102.070378,1.83776368 106.730195,1.4542737 111.155646,1.39699922 C123.850427,1.23015617 136.433812,1.76056764 149.264582,1.75558725 C153.09544,1.75309706 156.82937,1.44431292 160.670354,1.43061685 C162.169134,1.42439136 163.756163,1.71574414 165.256389,1.71823433 C167.859,1.72072453 170.208439,1.42812665 172.855897,1.40197961 C179.096955,1.33972474 185.730069,1.66469515 191.908919,1.65597947 C198.472591,1.64726378 205.086897,1.31482279 211.695417,1.3123326 C216.479649,1.30735221 221.642917,1.55388148 226.949407,1.57504814 C235.607899,1.60991086 244.671466,1.37832276 252.095924,1.81659702 C253.856556,1.62111674 259.869036,1.85270485 262.745073,1.49162662 C272.061812,2.08802824 282.362307,1.49536191 293.216887,1.57006775 C295.311706,1.58500892 297.127313,1.82282251 299.321955,1.85519504 C302.618981,1.90375384 306.91423,1.7319304 310.736408,1.67963632 C315.096757,1.61862655 319.29363,1.4542737 323.681467,1.5003423 C327.091336,1.53395993 330.369555,1.77550881 333.598587,1.77550881 C335.736807,1.77426371 338.044292,1.4517835 340.435685,1.46049918 C342.945707,1.47045996 345.679967,1.76554803 348.072807,1.74189118 C351.047219,1.71200885 353.675871,1.44680311 356.428939,1.42314626 C363.912711,1.3608914 378.376804,2.02701847 380,0.771960353 C371.818919,0.245284177 361.677561,0.615078087 351.035646,0.390960566" id="utilities-/-lines-/-horizontal" transform="translate(190.000000, 1.500000) scale(-1, 1) translate(-190.000000, -1.500000) "></path>
                    </g>
                    <g id="🛠-utilities-/-lines-/-vertical" fill="#1C1E20">
                        <path d="M107.614459,123.890961 C101.333334,123.686765 92.4923184,123.490039 86.6419534,124.115078 C86.4464985,123.547314 84.3733477,123.846137 83.6332756,123.82497 C80.2308415,123.732833 78.4119719,123.932049 75.6433431,124.003019 C66.3364618,124.243323 56.4128538,123.750265 46.6647756,123.807539 C41.6379781,123.834931 37.3835122,123.76147 33.1726916,123.705441 C30.3224651,123.666843 27.5747102,123.893451 24.6836849,123.884735 C20.6104418,123.871039 16.6595952,123.585912 12.6859772,123.628245 C1.60956452,123.746529 -10.1101417,124.112588 -20.7690778,124.046598 C-22.4029293,124.035392 -24.0206511,123.787617 -25.7768991,123.763961 C-29.265675,123.721627 -32.4603197,124.238343 -35.2735425,123.5 C-37.082924,124.041617 -39.6845621,123.81999 -41.7577129,123.81999 C-62.1770617,123.839912 -86.0178208,124.408921 -103.715033,123.593382 C-104.760622,123.729098 -105.170508,124.052823 -106.691451,124.051578 C-108.650744,123.895941 -110.569239,123.725363 -112.707858,123.62451 C-116.224149,124.270715 -122.488195,124.115078 -122.610592,125.751136 C-120.606704,125.688881 -121.805052,126.613988 -119.585784,126.488234 C-117.183396,126.452126 -117.362722,125.661489 -115.130171,125.576822 C-110.232411,125.223215 -106.72371,125.41496 -102.143803,125.378852 C-99.4871334,125.361421 -96.731788,125.132323 -94.6586372,125.204538 C-93.9062306,125.230685 -92.4545507,125.503362 -91.6499594,125.492156 C-89.8443732,125.467254 -88.4704957,125.167185 -86.6658584,125.177146 C-84.6050421,125.187107 -82.674213,125.441107 -80.6579908,125.453558 C-76.0515163,125.48344 -72.3558998,125.513322 -69.1688456,125.413715 C-67.945829,125.373872 -66.8233863,125.107421 -65.6848138,125.10244 C-63.1771079,125.091234 -61.0147689,125.403754 -58.6854394,125.375117 C-55.6682223,125.337764 -52.6121039,124.954274 -49.7096929,124.896999 C-41.3838816,124.730156 -33.1311286,125.260568 -24.7161291,125.255587 C-22.2036791,125.253097 -19.7547995,124.944313 -17.2357078,124.930617 C-16.2527403,124.924391 -15.2118952,125.215744 -14.2279788,125.218234 C-12.5210689,125.220725 -10.9802008,124.928127 -9.24387776,124.90198 C-5.15070965,124.839725 -0.800413923,125.164695 3.25195534,125.155979 C7.55670816,125.147264 11.8946694,124.814823 16.2288353,124.812333 C19.3665513,124.807352 22.7528557,125.053881 26.2330923,125.075048 C31.9117226,125.109911 37.8560198,124.878323 42.7253148,125.316597 C43.8800171,125.121117 47.8232731,125.352705 49.7095082,124.991627 C55.8198473,125.588028 62.5753774,124.995362 69.6943019,125.070068 C71.0681793,125.085009 72.2589364,125.322823 73.6982818,125.355195 C75.8606207,125.403754 78.6776388,125.23193 81.1843959,125.179636 C84.0441105,125.118627 86.7966095,124.954274 89.6743515,125.000342 C91.9106976,125.03396 94.060702,125.275509 96.1784468,125.275509 C97.5807886,125.274264 99.0941412,124.951784 100.662525,124.960499 C102.308711,124.97046 104.101963,125.265548 105.671295,125.241891 C107.622049,125.212009 109.346038,124.946803 111.151624,124.923146 C116.05982,124.860891 125.546027,125.527018 126.610592,124.27196 C121.245069,123.745284 114.593908,124.115078 107.614459,123.890961" id="utilities-/-lines-/-vertical" transform="translate(2.000000, 125.000000) scale(-1, 1) rotate(90.000000) translate(-2.000000, -125.000000) "></path>
                    </g>
                </g>
                <g id="np_barchart_2651256_000000" transform="translate(134.000000, 57.000000)" fill="#000000" fill-rule="nonzero">
                    <path d="M68.7781985,75.5842399 C68.0406432,64.0218607 66.8301152,52.4988386 65.1466554,41.0258329 C65.3069912,40.8336595 65.3711358,40.5854433 65.3390584,40.3452214 C65.306981,40.1049996 65.1626879,39.888802 64.9622768,39.752692 C64.7377963,38.0952045 64.4892835,36.4536648 64.2247216,34.8121456 C64.1605872,34.2676647 63.7597527,33.8192396 63.2146005,33.7071539 C59.9276384,33.3548258 56.6086605,33.0745909 53.2818838,32.9304455 L53.2818838,32.9224368 C53.1856822,32.7863145 53.0333709,32.6982243 52.8650208,32.6742206 C52.6966686,32.6582051 52.5283206,32.7142562 52.4000519,32.8263563 C47.3735612,32.5861344 42.3390664,32.834363 37.3605995,33.5630311 C37.0078503,33.5630311 36.9276875,34.195594 37.3605995,34.2196182 C41.6737111,34.4438307 45.9786135,34.4838643 50.2917251,34.7080563 C45.1689816,39.5444704 40.9923478,45.285688 37.977931,51.6432951 C37.8737132,51.8514778 38.2024115,51.9956232 38.3066272,51.7874241 C42.0906562,45.4777834 46.7883686,39.7685435 52.2398905,34.8361965 C53.2419871,34.8361965 54.2921895,34.9563053 55.2380941,35.060409 C60.0642805,35.5328377 61.2106947,35.5328377 62.5814252,40.2090151 L62.5814252,40.2010064 C62.5894415,40.2890863 62.5894415,40.3771663 62.5814252,40.4732468 C52.5124358,50.0339483 43.7179241,60.8516173 36.4146128,72.6538288 C36.2222098,73.0061569 36.72726,73.3264254 36.9677689,72.998142 C45.0086765,62.5086539 53.7309473,52.5636057 63.0935354,43.2343321 C63.2779222,44.8758104 63.3580973,46.5973147 63.5264474,48.1748786 C64.6728411,58.0157945 65.5226365,67.8806936 66.0678092,77.7767504 C56.1751123,88.8426561 46.4987277,100.116007 37.0462489,111.599262 C36.6373898,106.554788 36.2285308,101.49412 35.8357208,96.4496464 C44.1651816,85.2476306 53.1680017,74.5654567 62.8049822,64.4678997 C63.8551846,63.4029416 62.067427,61.881605 61.0412775,62.9705464 C51.5173786,72.6993355 43.0356373,83.3888889 35.7405352,94.8702991 C34.9789475,84.9654279 34.3616365,74.9644188 33.8726147,65.1064892 C32.9907623,45.552773 33.8726147,25.9502705 33.0709457,6.43775628 C33.0148276,4.27578037 32.7582984,2.12179887 32.309358,0 C32.309358,0 8.70791932,1.04894881 2.42993663,0.208182681 C-0.239693933,-0.144145393 -1.01731003,3.93952311 1.66834899,4.30788101 L2.077208,4.30788101 C0.722362277,25.2388908 2.36580228,46.8012542 2.83879564,67.8532051 C3.32781745,90.4425429 3.85692066,113.029831 4.4181013,135.619169 C4.50628654,136.443905 5.22779483,137.052464 6.06154131,136.996421 C11.3125536,136.58805 16.5475579,136.179679 21.8065741,135.811362 C25.4621291,135.523113 30.4888251,136.035575 33.9600837,134.850496 L34.1845436,134.850496 L34.1765273,134.842489 C34.2807472,134.850496 34.3849588,134.850496 34.4811706,134.842489 C45.5845188,135.595173 56.7198828,135.451028 67.7899837,134.410094 C68.4714085,134.346036 69.0245647,133.849583 69.1448294,133.176987 C70.0827916,114.936609 70.0186572,96.6486744 68.9604426,78.4070667 L69.6178145,77.6703919 C69.9785676,77.3260787 70.0988118,76.7976071 69.9144333,76.3411877 C69.7300465,75.8767739 69.2730899,75.5724943 68.7760436,75.5805092 L68.7781985,75.5842399 Z M31.8368162,131.85055 L29.2074107,132.074762 C22.3771543,133.756274 14.3682626,133.452015 7.2088175,133.876395 C6.57549855,112.273035 5.82991884,90.6450762 5.15651849,69.0171177 C4.48311813,47.7253344 4.95609917,25.7694 2.3906351,4.47146717 C8.25897891,4.14316333 12.4035968,3.7508222 18.6647506,3.69475883 C22.7693486,3.69475883 29.0465104,3.95900488 29.0465104,3.95900488 L29.0465104,16.1139955 C29.0865959,31.6639462 29.4874263,47.1815094 30.2570385,62.6681198 C30.9144104,77.7857574 31.88445,92.862398 33.1752024,107.908291 C33.5038987,111.887868 33.8967087,115.859451 34.3055677,119.839028 L34.2975514,119.839028 C34.6182231,121.592612 34.8026017,123.362309 34.8507076,125.147727 C35.3878353,127.773994 34.2093641,130.456427 31.9165357,131.849709 L31.8368162,131.85055 Z M66.276446,81.3648146 C66.276446,83.0863599 66.4608327,84.8079462 66.5249589,86.5294095 C66.589085,88.2508729 66.5249589,89.7083156 66.6692622,91.2856745 L66.6612438,91.2856745 C60.9371766,96.7546721 55.6301366,102.647988 50.7799383,108.909663 C46.4268069,114.522765 42.8753034,120.856389 38.177591,126.189276 L38.177591,124.940139 C37.8488948,121.000534 37.544272,117.093112 37.2155758,113.17749 C47.1082728,102.800128 56.7926614,92.1419375 66.2761299,81.3638306 L66.276446,81.3648146 Z M66.6051422,123.651153 C66.6051422,125.701002 66.4448043,127.750851 66.3405803,129.8007 L66.332564,129.8007 C66.0760267,130.561379 65.506842,131.177953 64.7773113,131.514251 C64.0397766,131.842555 63.1980057,131.85055 62.460471,131.546278 C59.5182951,131.954649 56.5360994,132.07475 53.5699116,131.914616 L48.463176,131.914616 C53.77822,125.372727 58.4361178,118.526641 64.3925052,112.481021 C65.338492,111.520154 63.7191049,110.182935 62.7891466,111.127792 C56.9368108,117.27734 50.9404035,124.163603 47.4931568,131.849717 C47.4771222,131.913775 47.4771222,131.98584 47.4931568,132.0579 L37.4159582,132.0579 C38.121436,130.528528 38.4340832,128.855011 38.3218635,127.173519 C43.6128956,122.585342 47.3326876,116.531933 51.7660639,111.143084 C56.5040014,105.361894 61.578516,99.973046 66.8055163,94.7442907 C67.0700782,104.368948 66.9979194,114.001599 66.605097,123.651264 L66.6051422,123.651153 Z" id="Shape"></path>
                    <path d="M171.966379,120.61237 C172.359297,118.568785 169.191871,117.523082 168.534373,119.510755 C167.018863,124.036888 166.625944,128.858524 167.387723,133.568375 C159.088422,133.831814 150.789327,133.568375 142.530876,132.79404 C148.913722,129.760542 155.047979,126.232292 160.877401,122.24873 C161.799541,121.6181 160.877401,120.205145 159.931202,120.819815 C153.772929,125.02674 147.494363,128.994157 141.023454,132.674245 L130.519081,131.748256 C130.270513,127.884653 130.07004,124.004906 129.88562,120.141303 C140.887171,111.966961 151.993824,104.239756 163.596012,96.9915666 C164.76672,96.2571429 163.596012,94.5008446 162.409271,95.2114197 L162.401253,95.2114197 C150.806455,102.044761 139.892762,109.979595 129.821932,118.896576 C129.66156,115.160697 129.493162,111.440758 129.388923,107.696705 C141.994088,98.4766607 154.494153,88.9770534 166.58695,79.0865082 C167.308618,94.1499814 165.127562,108.677626 164.349854,123.614193 C164.26967,124.388528 164.790869,125.091011 165.560653,125.242685 C166.330437,125.386376 167.076163,124.915385 167.284641,124.165021 C170.628379,111.312707 170.524099,96.7993674 170.139207,83.6611562 C169.730256,69.7073499 165.231883,54.4358397 168.439277,40.7458603 L168.431259,40.7458603 C168.519461,40.2908356 168.383146,39.8198709 168.070425,39.4766098 C167.757708,39.1333487 167.300641,38.949753 166.835568,38.9896642 C155.978326,40.6021758 144.559038,41.440332 133.99144,44.6493743 C133.598522,44.7691162 133.782962,45.264044 134.135774,45.2800044 C144.399564,45.5274622 154.807046,43.5876703 164.927143,42.2385361 C164.702633,43.3401513 164.534225,44.4417256 164.389895,45.5513925 C164.125274,45.5513925 163.86868,45.6392034 163.652175,45.7988503 C152.482298,53.9731924 141.441334,61.8442663 129.99105,69.4206553 C130.592447,60.7991767 131.482502,52.2018124 132.661278,43.6285625 C133.912187,34.5362418 136.357884,25.3799569 134.505557,16.2486038 C134.425373,15.2507618 133.703709,14.4205552 132.717421,14.2050182 C122.75826,13.2231367 112.887368,10.8523118 102.993485,9.38338258 C102.993485,8.89643702 102.191616,8.84853538 102.111436,9.38338258 C99.9543975,9.08003275 98.5993719,12.4248509 100.876578,13.1832255 L101.654389,13.4067529 C99.601631,32.1022906 98.7838122,51.0046392 97.9017421,69.7892772 C96.9796022,89.1634897 95.6244124,108.801325 96.2018122,128.190864 C96.2018122,129.971011 99.2809492,130.23445 99.3852293,128.334555 C100.515847,108.920492 100.20313,89.3633789 100.844617,69.9329679 C101.462046,51.2374301 102.688897,32.5169607 102.897375,13.814066 L102.889357,13.814066 C111.934219,16.2487938 121.179841,17.8293029 130.521532,18.5159476 C131.852622,27.7919866 129.102235,37.5229277 127.931567,46.73582 C126.69671,56.5466653 125.83878,66.3814206 125.341603,76.2472384 L125.349621,76.2472384 C124.323242,94.2643057 124.692102,112.336959 126.45618,130.298032 C116.6013,131.407637 106.666362,131.782819 96.7548252,131.423598 C95.7685366,131.423598 95.7284462,132.980238 96.7548252,133.115932 L96.7548252,133.123914 C107.227175,134.624682 117.851019,134.85618 128.387826,133.794455 C141.75477,136.899683 156.075425,137.083402 169.627733,136.979588 C170.092806,136.947657 170.517789,136.724139 170.8225,136.372888 C171.119185,136.021637 171.263514,135.566632 171.23145,135.103637 C170.750325,130.266062 170.998914,125.380666 171.969171,120.615025 L171.966379,120.61237 Z M129.925896,71.7665893 L129.925896,71.0481464 L129.925896,71.0561286 C142.218426,64.9891319 153.725571,57.4695547 164.204901,48.6563878 C164.052547,53.1028211 164.244993,57.5572245 164.782239,61.9795435 C152.000536,69.4513009 140.270256,78.5597659 129.885354,89.0815746 C129.556584,89.4088753 130.069782,89.9596829 130.462692,89.6722935 C141.816907,80.8832409 153.291413,72.6690489 165.174829,64.6628939 C165.66396,68.750065 166.201208,72.7334218 166.489867,76.7167787 L166.481849,76.7167787 C166.249312,76.7008142 166.00875,76.7726585 165.82433,76.9243253 C153.507782,86.3838783 141.191234,96.3622976 129.412509,106.476615 C129.083739,94.9655069 129.16394,83.3595761 129.925698,71.768359 L129.925896,71.7665893 Z" id="Shape"></path>
                    <path d="M154.283887,111.187382 C146.437263,116.135773 138.864801,121.494918 131.219669,126.755583 L131.227733,126.755583 C130.969674,126.993954 130.929355,127.388504 131.114833,127.676199 C131.308377,127.972101 131.679341,128.078976 131.993842,127.939232 C139.856568,123.056704 147.808067,118.256242 155.510178,113.061441 L155.502114,113.061441 C156.010158,112.716215 156.155332,112.017536 155.816615,111.499676 C155.477918,110.990044 154.792453,110.842093 154.284388,111.187319 L154.283887,111.187382 Z" id="Path"></path>
                </g>
            </g>
        </g>
    </g>
</svg>