<?xml version="1.0" encoding="UTF-8"?>
<svg width="125px" height="99px" viewBox="0 0 125 99" version="1.1" xmlns="http://www.w3.org/2000/svg" xmlns:xlink="http://www.w3.org/1999/xlink">
    <!-- Generator: Sketch 58 (84663) - https://sketch.com -->
    <title>np_barchart_2651256_000000</title>
    <desc>Created with Sketch.</desc>
    <g id="Page-1" stroke="none" stroke-width="1" fill="none" fill-rule="evenodd">
        <g id="iPhone-XS-Copy" transform="translate(-207.000000, -280.000000)" fill="#000000" fill-rule="nonzero">
            <g id="Group-3" transform="translate(0.000000, 219.000000)">
                <g id="np_barchart_2651256_000000" transform="translate(207.000000, 61.000000)">
                    <path d="M50.1098303,54.6192683 C49.5724687,46.2639723 48.6905125,37.937117 47.4639918,29.6464048 C47.5808079,29.507535 47.6275418,29.328167 47.6041711,29.1545761 C47.5808004,28.9809851 47.4756726,28.8247547 47.3296588,28.7263979 C47.1661088,27.5286514 46.9850494,26.3424293 46.7922972,25.156222 C46.7455707,24.762765 46.4535341,24.4387206 46.0563518,24.3577243 C43.6615651,24.1031223 41.2434526,23.9006168 38.8196582,23.7964534 L38.8196582,23.790666 C38.7495685,23.6923003 38.6385988,23.6286438 38.5159437,23.6112981 C38.3932872,23.5997248 38.2706336,23.6402289 38.1771807,23.7212355 C34.5150231,23.5476446 30.8470341,23.7270214 27.2198653,24.2535772 C26.9628624,24.2535772 26.9044581,24.7106847 27.2198653,24.7280453 C30.3622752,24.8900675 33.4987041,24.9189968 36.641114,25.0810042 C32.9088294,28.5759312 29.8658534,32.7246942 27.6696355,37.3188775 C27.5937054,37.4693161 27.8331855,37.5734795 27.9091141,37.4230291 C30.6660495,32.8635077 34.0886686,28.7378526 38.0604917,25.1736018 C38.7905906,25.1736018 39.5557381,25.2603958 40.2448972,25.335624 C43.7611187,25.6770141 44.5963633,25.6770141 45.5950384,29.0561496 L45.5950384,29.0503623 C45.6008788,29.1140113 45.6008788,29.1776603 45.5950384,29.2470908 C38.2590604,36.1559188 31.8516304,43.9730665 26.5306465,52.5016719 C26.3904671,52.756274 26.7584323,52.9877088 26.9336602,52.7504822 C32.7920357,45.1704871 39.146833,37.9839194 45.9681472,31.2423276 C46.1024862,32.4285053 46.1608995,33.6725121 46.2835545,34.8125035 C47.1187842,41.9238223 47.7379209,49.052472 48.1351182,56.2036371 C40.9275818,64.2001676 33.8776444,72.3466033 26.9908384,80.6447219 C26.6929555,76.9994452 26.3950725,73.3424664 26.1088823,69.6971897 C32.1774894,61.6023024 38.7366869,53.8830672 45.7579156,46.5862925 C46.5230631,45.8167242 45.2205539,44.7173642 44.4729307,45.5042634 C37.5340901,52.5345563 31.3545357,60.2591241 26.0395328,68.5559096 C25.4846618,61.3983749 25.0349066,54.1713683 24.6786193,47.047755 C24.0361268,32.9176973 24.6786193,18.7523852 24.0945461,4.65210126 C24.0536601,3.08979749 23.8667603,1.53327072 23.5396751,0 C23.5396751,0 6.34434122,0.757999508 1.7703824,0.15043858 C-0.174634151,-0.104163459 -0.741183022,2.84680867 1.2155114,3.11299431 L1.5133944,3.11299431 C0.526292516,18.2383226 1.72365595,33.8198844 2.06826539,49.0326081 C2.42455271,65.3562901 2.81004219,81.6784909 3.21890238,98.0021729 C3.28315162,98.5981503 3.80882195,99.037912 4.41626581,98.9974139 C8.24200332,98.7023137 12.0560779,98.4072136 15.8876469,98.1410576 C18.5509798,97.9327603 22.2132869,98.3030797 24.7423467,97.4467086 L24.9058818,97.4467086 L24.9000414,97.4409227 C24.975973,97.4467086 25.0518986,97.4467086 25.1219957,97.4409227 C33.2115779,97.9848331 41.324486,97.8806696 49.3898452,97.1284619 C49.8863119,97.082172 50.2893257,96.7234213 50.3769471,96.2373844 C51.0603196,83.0563815 51.0135931,69.8410129 50.2426082,56.6591212 L50.7215506,56.1267796 C50.984385,55.8779693 51.0719915,55.4960811 50.9376585,55.1662597 C50.8033196,54.8306614 50.470394,54.6107805 50.1082603,54.6165723 L50.1098303,54.6192683 Z M23.1953946,95.2788643 L21.2796849,95.4408865 C16.3033553,96.6559935 10.4683056,96.4361275 5.25213847,96.7427964 C4.79072037,81.131609 4.2475123,65.5026463 3.75689204,49.8736836 C3.26627178,34.4876504 3.61087226,18.6216832 1.74174843,3.2312062 C6.01725606,2.99396474 9.03690622,2.71044816 13.598604,2.66993521 C16.5890969,2.66993521 21.1624576,2.86088674 21.1624576,2.86088674 L21.1624576,11.6444201 C21.1916627,22.8812458 21.4836963,34.0946674 22.0444137,45.2857216 C22.5233561,56.2101459 23.2300993,67.1049446 24.1705046,77.9775241 C24.4099833,80.8532769 24.6961735,83.7232528 24.9940565,86.5990056 L24.988216,86.5990056 C25.2218483,87.8661944 25.3561812,89.145026 25.3912298,90.435219 C25.7825657,92.3330322 24.9239653,94.2714324 23.253476,95.278257 L23.1953946,95.2788643 Z M48.2871249,58.7964718 C48.2871249,60.0405082 48.4214638,61.2845743 48.4681843,62.5285514 C48.5149048,63.7725286 48.4681843,64.8257171 48.5733196,65.9655604 L48.5674776,65.9655604 C44.3970858,69.9176098 40.5305281,74.1762836 36.9968122,78.7011431 C33.825245,82.7573263 31.2377211,87.3341786 27.815102,91.1878711 L27.815102,90.28521 C27.5756233,87.4383421 27.3536839,84.6147302 27.1142053,81.7851933 C34.3217416,74.2862241 41.3775104,66.5843198 48.2868947,58.7957608 L48.2871249,58.7964718 Z M48.5266036,89.3537529 C48.5266036,90.8350307 48.409786,92.3163086 48.3338514,93.7975865 L48.3280109,93.7975865 C48.1411051,94.3472739 47.7264135,94.7928274 47.1948982,95.0358459 C46.6575515,95.2730873 46.0442613,95.2788643 45.5069146,95.0589894 C43.3633293,95.3540895 41.1905867,95.4408776 39.029507,95.3251602 L35.3088853,95.3251602 C39.1812745,90.59781 42.5748858,85.6506382 46.9145395,81.2819054 C47.6037584,80.5875564 46.4239193,79.6212448 45.7463783,80.304025 C41.4825336,84.7478586 37.1137225,89.7240635 34.6021571,95.2782629 C34.5904748,95.3245529 34.5904748,95.3766287 34.6021571,95.4287015 L27.2601981,95.4287015 C27.7741891,94.3235349 28.0019749,93.1142048 27.9202148,91.8991126 C31.7751097,88.5835684 34.4852438,84.2092067 37.7152751,80.3150753 C41.167201,76.1374274 44.8643474,72.243296 48.6725905,68.4648524 C48.8653427,75.4198964 48.8127698,82.3807173 48.5265707,89.3538329 L48.5266036,89.3537529 Z" id="Shape"></path>
                    <path d="M124.975669,87.0933628 C125.260018,85.6085702 122.967801,84.8488018 122.49198,86.2929705 C121.395229,89.5814891 121.110881,93.0847088 121.662168,96.5067103 C115.656095,96.6981149 109.650171,96.5067103 103.673661,95.9441075 C108.292825,93.7400814 112.73209,91.176587 116.950751,88.2822807 C117.618089,87.8240886 116.950751,86.7974881 116.266002,87.2440841 C111.809356,90.3006781 107.265657,93.1832545 102.582763,95.857069 L94.9809139,95.1842798 C94.8010288,92.3771309 94.6559501,89.5582521 94.5224885,86.7511032 C102.484137,80.8119328 110.521846,75.197635 118.918166,69.9313726 C119.76539,69.3977679 118.918166,68.1217074 118.059341,68.6379847 L118.053539,68.6379847 C109.662566,73.6028342 101.764499,79.3679869 94.4763978,85.8467309 C94.3603393,83.1323815 94.2384724,80.4296136 94.1630362,77.7093251 C103.285196,71.0103863 112.331295,64.1083279 121.082661,56.9222286 C121.604921,67.8667834 120.026525,78.4220255 119.46371,89.2743746 C119.405682,89.8369774 119.782866,90.3473748 120.339946,90.4575761 C120.897027,90.5619764 121.436697,90.2197718 121.587569,89.6745856 C124.007379,80.3365765 123.931914,69.7917279 123.653373,60.2459963 C123.357422,50.1076839 120.102021,39.0119773 122.423161,29.0653516 L122.417358,29.0653516 C122.481189,28.7347477 122.38254,28.3925624 122.156228,28.1431618 C121.92992,27.8937612 121.599148,27.7603674 121.262582,27.7893654 C113.405367,28.9609559 105.141409,29.5699287 97.4938054,31.9014985 C97.2094565,31.9884985 97.3429331,32.3480945 97.5982573,32.3596907 C105.026,32.5394842 112.557731,31.1301042 119.881485,30.1498739 C119.719011,30.9502662 119.597136,31.7506288 119.492687,32.5568711 C119.301185,32.5568711 119.115492,32.6206712 118.958811,32.7366647 C110.875347,38.6758351 102.885176,44.3946623 94.5987862,49.8993824 C95.0340074,43.6353393 95.6781264,37.3888169 96.5311878,31.1598149 C97.4364513,24.5536757 99.2063636,17.9010624 97.865864,11.2665637 C97.8078355,10.5415691 97.285579,9.93837214 96.5718175,9.78177107 C89.3645302,9.06837277 82.2211216,7.34582033 75.0610748,6.27855141 C75.0610748,5.92475503 74.4807749,5.88995149 74.4227494,6.27855141 C72.861735,6.05814879 71.8811244,8.48836823 73.5291028,9.03937477 L74.091992,9.20178138 C72.6064435,22.785258 72.014601,36.5189957 71.3762608,50.1672092 C70.7089226,64.2437855 69.7281932,78.5119 70.1460483,92.5996122 C70.1460483,93.8930002 72.3743711,94.0844048 72.449837,92.7040124 C73.2680474,78.5984827 73.0417389,64.3890175 73.5059728,50.2716095 C73.9527961,36.6881328 74.8406491,23.0865417 74.9915214,9.49771985 L74.9857188,9.49771985 C81.5313428,11.2667018 88.2222534,12.4150404 94.9826876,12.9139307 C95.9459767,19.6535528 93.9555645,26.7236897 93.108371,33.4174317 C92.2147245,40.545624 91.5938543,47.6911884 91.2340545,54.8593216 L91.239857,54.8593216 C90.4970827,67.9498471 90.764021,81.080759 92.0406568,94.1306011 C84.9088354,94.936799 77.7190776,95.2093921 70.5462551,94.9483952 C69.8324936,94.9483952 69.8034808,96.0793914 70.5462551,96.1779817 L70.5462551,96.1837813 C78.1249295,97.2741833 85.8132373,97.4423806 93.438558,96.6709714 C103.112004,98.9271138 113.475637,99.0605966 123.283228,98.9851692 C123.619794,98.9619693 123.927347,98.7995701 124.147862,98.5443639 C124.362568,98.2891578 124.467017,97.9585687 124.443813,97.6221741 C124.09563,94.1073731 124.27553,90.5578279 124.977689,87.0952915 L124.975669,87.0933628 Z M94.5516349,51.60385 L94.5516349,51.0818563 L94.5516349,51.0876559 C103.447545,46.6796037 111.775085,41.2161608 119.35881,34.8128442 C119.248554,38.043456 119.387824,41.2798584 119.77662,44.4929496 C110.526704,49.9216483 102.037685,56.5395174 94.5222953,64.1842691 C94.2843699,64.4220735 94.655763,64.8222696 94.9401059,64.6134632 C103.156972,58.2276672 111.460891,52.2595433 120.060732,46.4425714 C120.414708,49.4121566 120.803506,52.3063143 121.012404,55.200472 L121.006601,55.200472 C120.838318,55.1888728 120.664227,55.2410722 120.530765,55.3512676 C111.617474,62.2242241 102.704183,69.4741694 94.1801052,76.8228534 C93.9421797,68.4593136 94.0002201,60.0268795 94.5514923,51.6051359 L94.5516349,51.60385 Z" id="Shape"></path>
                    <path d="M111.764398,81.1322695 C106.114829,84.6252519 100.662656,88.4081773 95.1581616,92.1215877 L95.1639675,92.1215877 C94.9781656,92.2898498 94.9491359,92.5683556 95.0826799,92.7714346 C95.2220314,92.9803065 95.4891254,93.0557481 95.715566,92.9571051 C101.376729,89.5106146 107.101808,86.1220533 112.647328,82.4551348 L112.641522,82.4551348 C113.007314,82.211446 113.111839,81.7182605 112.867962,81.3527124 C112.624101,80.992972 112.130566,80.8885361 111.76476,81.1322249 L111.764398,81.1322695 Z" id="Path"></path>
                </g>
            </g>
        </g>
    </g>
</svg>