<?xml version="1.0" encoding="UTF-8"?>
<svg width="141px" height="85px" viewBox="0 0 141 85" version="1.1" xmlns="http://www.w3.org/2000/svg" xmlns:xlink="http://www.w3.org/1999/xlink">
    <!-- Generator: Sketch 58 (84663) - https://sketch.com -->
    <title>np_chart_2651216_000000</title>
    <desc>Created with Sketch.</desc>
    <g id="Page-1" stroke="none" stroke-width="1" fill="none" fill-rule="evenodd">
        <g id="iPhone-XS-Copy" transform="translate(-24.000000, -294.000000)" fill="#000000" fill-rule="nonzero">
            <g id="Group-3" transform="translate(0.000000, 219.000000)">
                <g id="np_chart_2651216_000000" transform="translate(24.000000, 75.000000)">
                    <path d="M138.386886,72.7211404 C132.608885,72.4041553 126.838104,72.4041553 121.038443,72.4473839 L121.038443,72.4401803 C121.248154,71.9863355 121.494022,71.5396831 121.761586,71.114645 C122.383502,70.0988837 122.058085,68.7662112 121.038443,68.1465522 C120.011561,67.5270039 118.681034,67.843989 118.059007,68.8669427 C117.321387,70.0339855 116.699471,71.2659081 116.207737,72.555389 L105.787118,72.555389 L98.3820351,72.555389 C98.4905066,72.2384039 98.6062055,71.9286482 98.7508453,71.5972597 C99.7704882,69.4216297 96.5813411,67.4117953 95.5327813,69.6090027 L95.5255502,69.6017992 C95.069971,70.5599285 94.6939223,71.5540938 94.3974228,72.5698919 L79.478772,72.5698919 C79.5438552,71.4748844 79.666787,70.3726845 79.8475821,69.2921541 C80.2380892,66.9509129 76.7163427,65.7910809 76.2390851,68.1827433 C75.9787594,69.4938753 75.7039568,71.0066177 75.5014648,72.5699657 L73.8671444,72.5699657 L55.838914,72.5699657 C55.636422,71.5037834 55.4484069,70.430298 55.3037856,69.4146843 C54.9494339,66.9653716 51.2830106,67.9378673 51.601244,70.3367959 C51.601244,71.0571863 51.7458746,71.8136129 51.803736,72.5845351 L34.6070965,72.6925955 L34.6070965,69.3930959 L34.5998636,69.4002994 C34.5998636,68.3845382 33.7754742,67.5560762 32.7485928,67.5560762 C31.7289498,67.5560762 30.897322,68.3845382 30.897322,69.4002994 C30.897322,70.430464 30.8033126,71.5975068 30.7671554,72.815063 L11.1621977,72.9591429 C11.3502127,69.1626251 11.4586972,65.3589149 11.5527047,61.5623971 C14.6478444,61.591215 17.7355789,61.1229556 20.6789144,60.1792298 C21.5250007,59.8910699 22.0095153,59.0121869 21.7998033,58.1476336 C21.5900914,57.2830802 20.751225,56.7212376 19.8617079,56.8581159 C17.1644064,57.4704533 14.4019401,57.7730165 11.6250339,57.7658241 L11.6250339,44.7481906 L11.6250339,44.740987 C14.5900292,44.5680911 17.5331795,44.1862816 20.44023,43.5955585 C21.0838428,43.321802 21.4815699,42.6590435 21.4237177,41.9602489 C21.3658654,41.2542619 20.8668924,40.6707312 20.1798858,40.4978353 C17.323375,40.4834264 14.4742692,40.6707312 11.6466382,41.0525408 C11.6466382,36.4060206 11.4079909,31.831425 11.2055174,27.1271807 L11.1982863,27.1271807 C14.4307903,27.6674827 17.7282738,27.5738331 20.917458,26.8534242 C21.6189231,26.6372997 22.0745023,25.9601194 21.9949532,25.232518 C21.922637,24.5049167 21.3368819,23.9285969 20.6065001,23.863754 C17.3306764,23.6260152 14.1631521,23.6404371 10.9958129,23.3666806 C10.8077978,20.1033277 10.6053058,16.818213 10.366677,13.5404752 C13.172463,13.0938228 15.9493692,12.4814854 18.6829557,11.6962521 C20.1798747,11.1775643 20.1798747,8.54097073 18.3286039,8.70658197 C15.5516977,8.99474184 12.7892314,9.45579762 10.07027,10.0897493 C9.83162271,7.17938079 9.57129701,4.24005794 9.28927441,1.3296894 C9.10125935,-0.37046303 6.40388375,-0.514533742 6.548468,1.3296894 C6.82327064,4.48497077 7.08359634,7.64043657 7.30778523,10.7885255 C5.25398541,11.2711956 3.20018558,11.7466547 1.1610108,12.1933071 C-0.878349111,12.6327486 0.0329019137,15.3631579 1.86247582,15.031751 C3.69204972,14.7003625 5.56501741,14.3833959 7.51033277,14.0736217 C7.69834783,17.0776768 7.86468451,20.0889243 7.99484736,23.0929794 L8.00207842,23.0929794 C7.00413239,22.9488976 6.01344333,22.7543985 5.03708311,22.5022563 C2.96162342,21.9835685 1.98544833,25.1029798 4.0535955,25.672107 C5.36973796,26.0395132 6.73645714,26.3924975 8.14657011,26.6878683 C8.33458517,31.6082556 8.44306964,36.5212661 8.47922496,41.4416534 L6.10737681,41.7154099 C3.81494818,41.9531487 3.66314398,45.5694674 6.10737681,45.4038562 L8.60955442,45.202135 C8.60955442,49.3947919 8.55893327,53.5804408 8.46492389,57.7587127 L8.46492389,57.7659181 C7.28618275,57.6290417 6.11473561,57.4345296 4.96491132,57.175195 C2.61472304,56.6060862 1.48655862,60.2008275 3.87295775,60.8636413 C5.34095996,61.216644 6.83073311,61.4759787 8.33489063,61.6560855 C8.21195514,66.0792703 8.01671272,70.509832 7.76360698,74.9330168 L7.75637406,74.9330168 C7.72744981,75.4012835 7.88654246,75.8623392 8.20473334,76.2081311 C8.52292976,76.5611338 8.97127052,76.7628365 9.44132669,76.7772399 L30.9549446,76.7772399 C30.9477136,79.5076123 31.7070234,82.1946454 33.1388888,84.5215017 C33.4787636,84.8672936 33.9705167,85.0113643 34.4477928,84.9033112 C34.9178489,84.7952527 35.3011175,84.4494664 35.4529773,83.9884106 C35.6554693,81.7912031 35.5035984,79.5724183 34.9901596,77.4255581 L34.9901596,76.6691315 L52.3025036,76.6691315 C52.454367,79.2552857 53.018427,81.7982849 53.9874562,84.2116354 C54.3128726,84.7519374 54.92755,85.0617116 55.5567044,84.9896762 C56.1930787,84.9248389 56.7282071,84.4926027 56.9306991,83.8946687 C57.2271986,81.4957033 57.1621079,79.0607754 56.7209871,76.6833874 L75.4576989,76.6833874 C75.3275305,79.0751604 75.8915997,81.452364 77.0847993,83.527115 C77.7139352,84.4852443 79.6375166,84.6509477 79.8978053,83.2317443 L79.9050382,83.2317443 C80.0858259,81.0994535 80.0135097,78.9454008 79.6808678,76.834503 C79.6664038,76.7840764 79.6664038,76.733648 79.6808678,76.6832196 L93.9341719,76.6832196 C93.8835508,78.1240189 94.1149596,79.5576258 94.62116,80.9048308 C95.2502959,82.5257369 98.1791173,82.7490539 98.048973,80.5374246 C98.048973,79.2262926 97.8826474,77.9367012 97.9188065,76.6833671 L105.880752,76.6833671 L115.375735,76.6833671 C115.223873,78.0593235 115.310651,79.4497018 115.62884,80.7969068 C115.744545,81.812668 116.662942,82.5474803 117.68986,82.4394088 C118.709503,82.3241449 119.447123,81.4092442 119.331419,80.3934277 C119.331419,79.1183134 119.533911,77.9007757 119.736385,76.7049814 C125.941104,76.7049814 132.138418,76.7049814 138.249093,76.3879963 L138.256324,76.3879963 C139.210876,76.3303644 139.962973,75.5667453 140,74.6158085 C140.028055,73.6648718 139.333819,72.8436208 138.386505,72.7212381 L138.386886,72.7211404 Z" id="Path"></path>
                    <path d="M38.2580421,52.6729165 C50.0927466,42.6477588 61.9790914,32.738719 73.9064882,22.8280151 C78.3835809,28.7001072 80.2556305,36.1394217 79.1091441,43.4278569 C79.0946309,44.3018109 79.7912218,45.0240719 80.6691978,45.052972 C87.9107122,44.8651863 95.1741458,44.6123894 102.42309,44.2006884 L102.415835,44.2006884 C104.904594,44.25847 107.357318,43.5650906 109.439643,42.2072687 C111.761594,40.4665904 113.154764,37.6207946 114.620565,35.2374183 C121.825857,24.2444877 130.467787,14.2622271 140.314344,5.53858884 C142.31698,3.68957692 139.494398,0.807706947 137.455373,2.52673333 L137.448117,2.52673333 C128.523095,10.1827521 120.686604,19.0162216 114.156164,28.7808535 C112.57434,31.0921184 111.094161,33.4610725 109.657338,35.8590561 L109.664594,35.8662801 C108.953501,37.426384 107.821541,38.7553613 106.392129,39.7087118 C104.83932,40.4309913 103.126909,40.7704514 101.414424,40.7054402 C95.1016898,41.0593595 88.7815255,41.3554788 82.4691629,41.7743909 L82.4691629,41.7816132 C83.1512406,33.7282418 80.5681353,25.7399556 75.3000934,19.5934702 C74.6760645,19.015654 73.711006,19.015654 73.0869956,19.5934702 C60.9039985,30.0808809 48.6842216,40.5242851 36.4373243,50.9175811 C35.1602514,51.8565278 36.9597632,53.7633953 38.2586068,52.6727002 L38.2580421,52.6729165 Z" id="Path"></path>
                </g>
            </g>
        </g>
    </g>
</svg>